<?xml version="1.0" standalone="no"?>
<!DOCTYPE svg PUBLIC "-//W3C//DTD SVG 20010904//EN"
 "http://www.w3.org/TR/2001/REC-SVG-20010904/DTD/svg10.dtd">
<svg version="1.0" xmlns="http://www.w3.org/2000/svg"
 width="1691.000000pt" height="1691.000000pt" viewBox="0 0 1691.000000 1691.000000"
 preserveAspectRatio="xMidYMid meet">
<metadata>
Created by potrace 1.11, written by Peter Selinger 2001-2013
</metadata>
<g transform="translate(0.000000,1691.000000) scale(0.100000,-0.100000)"
fill="#000000" stroke="none">
<path d="M8618 16615 c-2 -1 -66 -6 -143 -10 -207 -11 -349 -21 -394 -30 -9
-1 -47 -6 -85 -10 -38 -4 -79 -8 -90 -10 -12 -2 -43 -6 -71 -10 -53 -6 -213
-32 -255 -40 -14 -3 -50 -9 -80 -15 -81 -15 -85 -16 -215 -44 -217 -49 -652
-171 -730 -206 -11 -5 -65 -25 -120 -45 -358 -131 -738 -317 -1080 -529 -181
-112 -500 -340 -589 -421 -6 -6 -31 -26 -56 -45 -25 -19 -55 -44 -66 -55 -12
-11 -57 -51 -100 -90 -101 -90 -309 -297 -399 -399 -39 -44 -75 -84 -80 -90
-78 -82 -330 -428 -432 -591 -184 -297 -386 -720 -514 -1076 -89 -251 -181
-614 -204 -810 -3 -25 -8 -68 -11 -95 -11 -98 -13 -410 -3 -464 32 -167 53
-251 74 -304 l24 -59 -43 -66 c-80 -125 -269 -376 -485 -646 -118 -148 -218
-272 -221 -275 -11 -9 -474 -584 -528 -655 -42 -55 -184 -240 -200 -261 -52
-64 -257 -370 -319 -475 -79 -136 -156 -308 -169 -379 -3 -14 -12 -51 -20 -83
-29 -115 -18 -251 32 -369 32 -77 59 -115 144 -197 82 -80 162 -137 270 -193
47 -25 110 -58 140 -75 102 -56 248 -97 415 -118 120 -15 205 -45 205 -72 0
-16 -8 -44 -80 -273 -57 -182 -63 -193 -165 -330 -100 -134 -129 -213 -127
-350 1 -109 23 -176 93 -288 34 -56 143 -160 228 -218 2 -2 -29 -40 -69 -86
-105 -121 -156 -222 -175 -348 -11 -71 91 -239 240 -395 37 -38 81 -92 97
-120 16 -27 40 -64 52 -81 12 -18 31 -58 41 -90 16 -51 17 -65 6 -123 -13 -66
-70 -249 -96 -306 -7 -16 -41 -112 -74 -212 -61 -181 -103 -347 -116 -453 -7
-58 -8 -241 -1 -275 2 -11 7 -40 11 -65 20 -133 96 -291 217 -451 73 -96 195
-216 283 -278 39 -27 84 -61 101 -75 91 -74 448 -221 614 -252 22 -4 598 -14
1140 -19 517 -5 839 -12 912 -19 107 -11 232 -72 313 -153 119 -120 177 -208
258 -393 76 -172 157 -450 181 -615 4 -23 8 -52 11 -65 17 -89 25 -434 12
-517 -4 -28 -2 -32 21 -37 37 -7 222 -19 306 -20 l69 -1 4 40 c8 72 7 378 0
460 -9 88 -44 311 -51 323 -2 4 -7 27 -11 50 -8 55 -75 284 -113 387 -35 93
-111 275 -122 290 -4 6 -27 46 -50 89 -55 104 -79 135 -180 240 -108 111 -179
167 -285 221 -107 54 -206 85 -328 100 -55 7 -422 15 -922 20 -264 2 -622 7
-795 10 l-315 6 -105 35 c-116 38 -119 39 -205 78 -56 26 -183 105 -213 133
-7 7 -17 13 -22 13 -17 0 -168 158 -208 217 -117 172 -133 223 -128 398 4 126
5 134 36 257 24 95 50 172 139 415 37 104 73 211 80 238 12 48 15 58 26 108
26 110 11 264 -37 375 -40 93 -78 171 -88 177 -5 3 -26 32 -47 63 -20 31 -61
82 -89 112 -119 127 -143 156 -144 171 0 15 47 71 163 193 99 106 135 236 94
345 -24 66 -55 99 -182 193 -148 110 -183 157 -175 232 1 11 39 69 83 130 96
130 123 183 170 331 85 266 124 419 120 475 -7 114 -54 211 -139 289 -86 79
-197 129 -329 148 -16 2 -52 8 -80 13 -27 5 -68 12 -90 15 -81 11 -153 39
-291 111 -151 80 -257 164 -280 221 -53 126 59 383 339 783 61 86 168 231 177
240 3 3 44 55 90 115 89 116 573 719 590 735 3 3 51 61 106 130 312 387 424
537 603 804 l114 169 -13 56 c-8 31 -15 64 -17 73 -1 9 -17 52 -34 95 -31 77
-52 152 -66 235 -9 57 -10 293 -1 393 27 301 128 673 291 1069 48 117 166 365
230 486 80 150 89 165 122 215 11 16 28 46 39 65 47 88 220 325 365 500 121
145 410 437 562 566 598 510 1315 892 2089 1113 122 35 347 93 410 105 14 3
72 14 130 26 58 11 121 23 140 26 19 3 49 8 65 10 17 3 44 7 60 10 17 2 41 6
55 9 14 2 50 7 80 10 30 3 69 8 85 10 65 9 225 26 275 30 351 27 1006 26 1265
0 105 -11 142 -15 220 -20 44 -3 91 -8 105 -10 14 -2 50 -7 80 -10 30 -3 62
-8 70 -10 8 -2 42 -7 75 -10 33 -3 67 -8 75 -10 8 -2 40 -6 70 -10 30 -3 66
-7 80 -10 14 -3 93 -16 175 -30 195 -33 168 -28 340 -65 83 -18 159 -34 170
-36 11 -2 32 -6 47 -10 15 -3 30 -5 33 -4 3 0 18 -6 33 -14 15 -8 77 -27 137
-41 215 -51 450 -126 687 -219 64 -25 121 -46 127 -46 16 0 391 -170 545 -247
111 -55 335 -179 422 -233 132 -83 410 -271 424 -289 3 -3 43 -35 90 -71 47
-35 90 -69 95 -75 6 -6 39 -36 75 -66 158 -133 392 -366 553 -551 31 -36 57
-69 57 -73 0 -4 35 -51 78 -104 199 -252 349 -478 475 -721 50 -97 227 -473
227 -484 0 -4 9 -25 19 -49 28 -61 127 -375 157 -497 14 -58 33 -132 44 -165
10 -33 26 -96 35 -140 8 -44 17 -91 20 -105 11 -54 37 -207 41 -239 2 -19 6
-46 8 -60 39 -245 60 -798 42 -1093 -16 -263 -23 -340 -41 -468 -2 -19 -7 -60
-10 -90 -3 -30 -15 -113 -26 -185 -11 -71 -22 -143 -25 -160 -3 -16 -21 -104
-40 -195 -20 -91 -37 -174 -40 -185 -9 -48 -68 -268 -96 -360 -16 -55 -40
-136 -53 -180 -31 -105 -169 -476 -235 -635 -70 -167 -150 -332 -223 -460 -52
-91 -271 -427 -326 -500 -134 -176 -405 -574 -494 -725 -36 -60 -74 -123 -85
-140 -19 -28 -75 -127 -154 -275 -114 -210 -246 -579 -273 -760 -4 -25 -11
-65 -15 -90 -9 -44 -6 -701 4 -790 2 -25 7 -95 10 -156 6 -113 9 -149 26 -309
5 -49 12 -121 15 -160 3 -38 8 -81 10 -95 3 -14 7 -47 10 -75 6 -59 33 -273
41 -330 3 -22 7 -49 9 -60 4 -30 17 -117 21 -139 2 -10 6 -44 10 -75 3 -31 8
-58 9 -61 2 -3 6 -34 10 -70 4 -36 9 -68 10 -71 2 -3 7 -28 11 -55 3 -27 8
-58 10 -69 3 -11 7 -36 10 -55 2 -19 7 -46 9 -60 3 -14 7 -41 10 -60 8 -49 10
-61 45 -270 34 -206 37 -224 44 -260 3 -14 8 -43 11 -65 10 -70 17 -108 35
-205 10 -52 17 -117 16 -145 -6 -112 -103 -223 -271 -308 -44 -22 -205 -83
-245 -92 -142 -34 -242 -55 -297 -60 -37 -4 -81 -9 -98 -11 -43 -5 -356 -5
-383 1 -13 2 -53 7 -90 10 -156 13 -373 58 -597 121 -430 123 -1194 428 -1436
575 -72 44 -224 159 -275 208 -95 92 -222 246 -299 361 -16 25 -33 47 -37 48
-5 2 -8 8 -8 14 0 5 -13 28 -29 51 -211 308 -454 890 -547 1307 -4 19 -9 40
-10 45 -18 76 -37 173 -50 260 -3 17 -9 55 -14 85 -5 30 -12 84 -16 120 -3 36
-8 73 -9 82 -8 37 -19 310 -19 443 0 137 9 330 19 413 3 23 7 59 9 80 13 111
20 142 30 143 6 0 122 1 259 1 l247 1 0 154 0 153 -620 0 -620 0 0 -154 0
-154 148 0 c190 0 175 2 168 -25 -3 -13 -8 -55 -12 -93 -3 -38 -8 -80 -10 -94
-22 -141 -22 -703 0 -875 2 -16 7 -61 10 -100 4 -38 9 -77 11 -85 3 -8 7 -37
10 -65 2 -27 9 -72 14 -100 6 -27 13 -66 15 -85 8 -50 12 -71 41 -200 111
-492 317 -1001 572 -1415 268 -434 488 -665 838 -880 119 -73 344 -177 645
-297 534 -214 875 -324 1215 -392 124 -25 127 -26 180 -31 28 -3 57 -8 65 -10
8 -2 47 -7 85 -10 39 -3 84 -8 100 -10 41 -6 394 -6 425 -1 14 3 54 7 90 10
204 18 491 95 679 183 265 124 463 342 508 558 9 47 9 239 0 275 -4 14 -16 79
-28 145 -11 66 -22 131 -24 145 -3 14 -17 97 -31 185 -14 88 -27 167 -29 175
-1 8 -6 35 -10 60 -4 25 -9 54 -11 65 -5 26 -43 260 -50 305 -3 19 -7 42 -9
50 -2 8 -7 38 -10 65 -3 28 -10 73 -15 100 -5 28 -12 73 -15 100 -3 28 -10 77
-15 110 -5 33 -12 78 -15 100 -3 22 -7 54 -10 70 -2 17 -7 55 -10 85 -3 30 -8
66 -10 80 -6 39 -14 100 -20 155 -3 28 -7 68 -10 90 -7 58 -14 139 -20 225 -3
41 -8 84 -10 95 -2 11 -7 72 -10 135 -4 63 -9 140 -11 170 -10 118 -13 687 -5
730 5 25 12 63 15 85 25 159 137 450 262 682 41 75 79 140 83 143 5 3 26 37
46 75 86 163 275 447 512 770 68 93 338 503 378 575 277 493 589 1375 698
1970 3 14 14 75 26 135 11 61 23 130 26 155 3 25 8 52 10 60 2 8 6 33 9 55 4
22 8 51 11 65 2 14 7 52 10 85 3 33 10 94 15 135 15 120 19 169 25 275 3 55 8
125 11 155 11 124 4 689 -11 840 -2 19 -6 76 -10 125 -3 50 -8 97 -10 105 -2
8 -6 40 -9 70 -4 30 -8 66 -11 80 -2 14 -9 57 -15 95 -9 59 -51 284 -66 350
-3 11 -9 41 -14 68 -5 26 -14 55 -19 65 -5 9 -18 55 -29 102 -27 113 -137 466
-174 560 -30 76 -40 99 -89 205 -15 33 -47 105 -73 160 -54 120 -120 248 -189
370 -60 105 -231 370 -281 435 -46 60 -56 72 -126 163 -33 42 -69 91 -79 108
-87 144 -598 649 -866 858 -44 34 -89 69 -100 79 -26 21 -233 166 -305 213
-140 92 -210 134 -348 212 -138 78 -357 189 -497 252 -33 15 -123 56 -200 90
-77 35 -153 67 -170 71 -16 4 -74 24 -128 46 -196 77 -438 154 -657 209 -63
16 -131 35 -150 44 -31 13 -426 100 -505 112 -16 2 -64 10 -105 18 -63 12
-148 27 -290 50 -29 5 -99 14 -150 20 -19 2 -82 11 -140 19 -99 14 -180 23
-295 32 -52 4 -123 11 -210 19 -125 13 -255 17 -592 20 -199 2 -363 2 -365 0z"/>
<path d="M8739 13886 c-2 -2 -38 -7 -79 -10 -96 -9 -117 -12 -220 -31 -47 -9
-98 -18 -114 -21 -71 -13 -301 -85 -411 -129 -148 -58 -349 -161 -481 -245
-54 -36 -101 -67 -104 -70 -3 -3 -30 -24 -61 -46 -155 -110 -385 -329 -523
-499 -70 -85 -196 -260 -196 -271 0 -3 -15 -29 -33 -57 -37 -58 -134 -253
-168 -338 -95 -240 -146 -448 -179 -729 -8 -72 -6 -443 3 -485 4 -19 15 -90
22 -145 12 -91 55 -269 95 -395 99 -310 224 -547 444 -845 183 -250 369 -512
449 -635 186 -287 186 -287 322 -610 15 -35 85 -252 91 -279 2 -10 10 -42 18
-70 16 -58 53 -241 61 -301 2 -22 7 -58 10 -80 13 -97 15 -130 21 -305 4 -102
9 -187 11 -190 2 -3 560 -5 1239 -5 l1234 0 1 150 c3 502 103 938 320 1392 33
68 107 185 121 191 5 2 8 8 8 13 0 5 41 66 92 136 108 152 445 617 498 688 45
61 100 144 100 151 0 3 16 30 35 60 45 70 116 213 161 324 19 47 39 94 44 105
10 22 70 212 75 235 2 8 12 54 24 102 11 47 23 108 26 135 4 26 8 55 10 63 2
8 7 38 11 65 3 28 8 59 11 70 8 39 10 361 2 435 -40 375 -130 681 -287 980
-157 296 -338 523 -638 797 -228 207 -597 426 -904 536 -183 66 -418 124 -580
143 -25 3 -56 8 -70 11 -27 6 -505 14 -511 9z m496 -309 c11 -2 43 -7 70 -11
403 -55 838 -245 1170 -510 113 -91 385 -358 457 -448 212 -269 355 -559 433
-883 47 -190 63 -342 60 -555 -2 -107 -5 -204 -8 -215 -3 -11 -8 -45 -12 -75
-20 -161 -83 -387 -155 -555 -92 -217 -160 -326 -382 -618 -49 -63 -88 -121
-88 -130 0 -8 -4 -17 -9 -19 -7 -2 -189 -253 -232 -318 -5 -8 -30 -46 -56 -85
-230 -349 -371 -627 -458 -900 -30 -93 -75 -266 -81 -310 -3 -16 -9 -52 -14
-78 -6 -26 -13 -71 -16 -100 -3 -29 -8 -63 -10 -77 -2 -14 -7 -79 -10 -145 -3
-66 -7 -126 -9 -132 -3 -10 -43 -13 -154 -13 -110 0 -150 3 -153 13 -2 6 -3
496 -2 1087 l2 1075 306 609 c169 335 302 612 297 615 -11 7 -309 6 -316 0 -4
-5 -198 -400 -310 -634 -29 -60 -106 -218 -171 -350 l-118 -240 -2 -1075 c-1
-591 -2 -1081 -3 -1088 -1 -10 -66 -12 -308 -10 l-307 3 -1 1085 -1 1085 -34
65 c-18 36 -61 124 -95 195 -35 72 -103 213 -153 315 -49 102 -140 288 -201
415 -62 126 -116 232 -120 235 -11 6 -310 5 -316 -2 -3 -3 133 -281 301 -619
l307 -613 1 -1074 c1 -591 -2 -1078 -5 -1083 -3 -6 -70 -8 -155 -7 -141 3
-149 4 -150 23 -8 155 -15 265 -18 285 -3 14 -7 48 -11 75 -3 28 -10 68 -15
90 -5 22 -11 58 -14 79 -21 136 -113 422 -191 591 -55 122 -72 155 -117 233
-26 46 -48 87 -48 91 0 9 -93 173 -138 241 -30 45 -124 176 -155 215 -4 5 -75
102 -157 215 -82 113 -153 210 -158 215 -198 237 -351 527 -437 825 -36 127
-39 136 -56 240 -32 194 -39 360 -25 550 11 148 18 192 52 340 100 434 339
843 665 1140 45 41 96 89 114 105 274 261 685 478 1075 569 220 51 343 64 595
61 127 -2 239 -5 250 -8z"/>
<path d="M8032 6628 l3 -153 915 -1 c503 0 920 2 927 4 8 2 11 47 11 153 l0
149 -929 0 -930 0 3 -152z"/>
<path d="M8030 6005 l0 -155 929 0 929 0 1 155 0 155 -929 0 -930 0 0 -155z"/>
</g>
</svg>
